<?xml version="1.0" encoding="UTF-8" standalone="no"?>
<!DOCTYPE svg PUBLIC "-//W3C//DTD SVG 1.1//EN" "http://www.w3.org/Graphics/SVG/1.1/DTD/svg11.dtd">
<svg width="55px" height="55px" version="1.1" xmlns="http://www.w3.org/2000/svg" xmlns:xlink="http://www.w3.org/1999/xlink" xml:space="preserve" xmlns:serif="http://www.serif.com/" style="fill-rule:evenodd;clip-rule:evenodd;stroke-linejoin:round;stroke-miterlimit:2;">
    <g transform="matrix(0.103416,0,0,0.107422,0.566485,0)">
        <rect x="35.309" y="70.621" width="450.207" height="406.07" style="fill:rgb(176,211,240);"/>
    </g>
    <g transform="matrix(0.103416,0,0,0.107422,0.566485,0)">
        <path d="M485.516,252.117L485.516,476.691L185.379,476.691C185.379,476.691 229.516,285.484 485.516,252.117Z" style="fill:rgb(144,186,225);fill-rule:nonzero;"/>
    </g>
    <g transform="matrix(0.264384,0,0,0.107422,-40.2064,0)">
        <rect x="167.723" y="459.035" width="176.555" height="35.309" style="fill:rgb(127,140,141);"/>
    </g>
    <g transform="matrix(0.107422,0,0,0.107422,0,0)">
        <path d="M496.789,141.242L15.211,141.242C12.055,141.246 9.133,139.566 7.551,136.836C5.973,134.102 5.969,130.734 7.547,128L35.309,79.449L476.691,79.449L504.453,128C506.031,130.734 506.027,134.102 504.449,136.836C502.867,139.566 499.945,141.246 496.789,141.242Z" style="fill:rgb(175,128,102);fill-rule:nonzero;"/>
    </g>
    <g transform="matrix(0.107422,0,0,0.107422,0,0)">
        <path d="M496.789,203.035L15.211,203.035C12.055,203.039 9.133,201.359 7.551,198.629C5.973,195.895 5.969,192.527 7.547,189.793L35.309,141.242L476.691,141.242L504.453,189.793C506.031,192.527 506.027,195.895 504.449,198.629C502.867,201.359 499.945,203.039 496.789,203.035Z" style="fill:rgb(127,91,83);fill-rule:nonzero;"/>
    </g>
    <g transform="matrix(0.107422,0,0,0.107422,0,0)">
        <path d="M496.789,264.828L15.211,264.828C12.055,264.832 9.133,263.152 7.551,260.422C5.973,257.688 5.969,254.32 7.547,251.586L35.309,203.035L476.691,203.035L504.453,251.586C506.031,254.32 506.027,257.688 504.449,260.422C502.867,263.152 499.945,264.832 496.789,264.828Z" style="fill:rgb(175,128,102);fill-rule:nonzero;"/>
    </g>
    <g transform="matrix(0.107422,0,0,0.107422,0,0)">
        <path d="M496.789,326.621L15.211,326.621C12.055,326.625 9.133,324.945 7.551,322.215C5.973,319.48 5.969,316.113 7.547,313.379L35.309,264.828L476.691,264.828L504.453,313.379C506.031,316.113 506.027,319.48 504.449,322.215C502.867,324.945 499.945,326.625 496.789,326.621Z" style="fill:rgb(127,91,83);fill-rule:nonzero;"/>
    </g>
    <g transform="matrix(0.107422,0,0,0.0614005,0,3.65636)">
        <rect x="97.102" y="79.449" width="35.313" height="432.551" style="fill:rgb(149,165,165);"/>
    </g>
    <g transform="matrix(0.107422,0,0,0.0614005,0,3.65636)">
        <rect x="379.586" y="79.449" width="35.313" height="432.551" style="fill:rgb(149,165,165);"/>
    </g>
    <g transform="matrix(0.107422,0,0,0.107422,0,0)">
        <path d="M450.207,300.137C445.332,300.137 441.379,296.188 441.379,291.309L441.379,79.449C441.379,74.574 445.332,70.621 450.207,70.621C455.082,70.621 459.035,74.574 459.035,79.449L459.035,291.309C459.035,296.188 455.082,300.137 450.207,300.137Z" style="fill:rgb(236,240,241);fill-rule:nonzero;"/>
    </g>
    <g transform="matrix(0.107422,0,0,0.107422,0,0)">
        <path d="M8.828,0L503.172,0C508.047,0 512,3.953 512,8.828L512,70.621C512,75.496 508.047,79.449 503.172,79.449L8.828,79.449C3.953,79.449 0,75.496 0,70.621L0,8.828C0,3.953 3.953,0 8.828,0Z" style="fill:rgb(189,195,199);fill-rule:nonzero;"/>
    </g>
    <g transform="matrix(0.107422,0,0,0.107422,0,0)">
        <path d="M52.965,52.965L35.309,52.965C30.434,52.965 26.484,49.012 26.484,44.137C26.484,39.262 30.434,35.309 35.309,35.309L52.965,35.309C57.84,35.309 61.793,39.262 61.793,44.137C61.793,49.012 57.84,52.965 52.965,52.965Z" style="fill:rgb(149,165,165);fill-rule:nonzero;"/>
        <path d="M141.242,52.965L88.277,52.965C83.402,52.965 79.449,49.012 79.449,44.137C79.449,39.262 83.402,35.309 88.277,35.309L141.242,35.309C146.117,35.309 150.07,39.262 150.07,44.137C150.07,49.012 146.117,52.965 141.242,52.965Z" style="fill:rgb(149,165,165);fill-rule:nonzero;"/>
    </g>
</svg>
