<?xml version="1.0" encoding="UTF-8" standalone="no"?>
<!DOCTYPE svg PUBLIC "-//W3C//DTD SVG 1.1//EN" "http://www.w3.org/Graphics/SVG/1.1/DTD/svg11.dtd">
<svg width="56px" height="60px" version="1.1" xmlns="http://www.w3.org/2000/svg" xmlns:xlink="http://www.w3.org/1999/xlink" xml:space="preserve" xmlns:serif="http://www.serif.com/" style="fill-rule:evenodd;clip-rule:evenodd;stroke-linejoin:round;stroke-miterlimit:2;">
    <g id="A1_Guru_icon">
        <path id="Icons_1_" d="M25.957,0L29.95,0L29.95,9.984L25.957,9.984L25.957,0ZM16.652,13.837L9.604,6.769L6.769,9.604L13.837,16.652L16.652,13.837ZM49.139,9.604L46.303,6.769L39.255,13.837L42.07,16.652L49.139,9.604ZM11.98,27.954C11.98,19.132 19.132,11.98 27.954,11.98C36.776,11.98 43.927,19.132 43.927,27.954L43.927,29.95L35.94,47.921L19.967,47.921L11.98,29.95L11.98,27.954ZM39.934,29.112L33.345,43.927L22.563,43.927L15.974,29.112L15.974,27.954C15.974,21.337 21.337,15.974 27.954,15.974C34.57,15.974 39.934,21.337 39.934,27.954L39.934,29.112ZM9.983,29.95L0,29.95L0,25.957L9.983,25.957L9.983,29.95ZM45.924,25.957L45.924,29.95L55.907,29.95L55.907,25.957L45.924,25.957ZM21.964,53.911L19.967,51.914L19.967,49.917L35.941,49.917L35.941,51.914L33.944,53.911L21.964,53.911ZM23.96,59.901L21.964,57.904L21.964,55.907L33.944,55.907L33.944,57.904L31.947,59.901L23.96,59.901Z" style="fill:rgb(253,192,46);"/>
    </g>
</svg>
