<?xml version="1.0" encoding="UTF-8" standalone="no"?>
<!DOCTYPE svg PUBLIC "-//W3C//DTD SVG 1.1//EN" "http://www.w3.org/Graphics/SVG/1.1/DTD/svg11.dtd">
<svg width="100%" height="100%" viewBox="0 0 512 512" version="1.1" xmlns="http://www.w3.org/2000/svg" xmlns:xlink="http://www.w3.org/1999/xlink" xml:space="preserve" xmlns:serif="http://www.serif.com/" style="fill-rule:evenodd;clip-rule:evenodd;stroke-linejoin:round;stroke-miterlimit:2;">
    <path d="M363.512,104.684C352.077,54.724 307.252,18.999 256,18.999C204.748,18.999 159.923,54.724 148.488,104.684C67.308,117.024 19,141.636 19,170.88C19,199.1 62.656,222.616 138.816,235.508C168.2,259.952 210.752,273.96 256,273.96C301.248,273.96 343.8,259.96 373.2,235.508C449.364,222.612 493.016,199.108 493.016,170.88C493,141.636 444.692,117.024 363.512,104.684ZM256,33C308.817,33.059 352.261,76.503 352.32,129.32C352.322,135.431 351.751,141.528 350.612,147.532C319.658,155.157 287.878,158.915 256,158.72C224.121,158.911 192.341,155.149 161.388,147.52C160.249,141.516 159.678,135.419 159.68,129.308C159.746,76.495 203.187,33.059 256,33ZM170.748,240.02C199.053,243.212 227.516,244.795 256,244.76C284.484,244.795 312.947,243.212 341.252,240.02C314.856,253.434 285.607,260.275 256,259.96C226.393,260.275 197.144,253.434 170.748,240.02ZM369.04,222C331.66,227.982 293.855,230.912 256,230.76C218.141,230.913 180.332,227.984 142.948,222C66.996,209.412 33,187.252 33,170.88C33,154.42 68.508,131.68 146.16,119.212C145.856,122.544 145.68,125.912 145.68,129.32C145.678,137.9 146.665,146.451 148.624,154.804C149.214,157.298 151.127,159.278 153.6,159.952C187.03,168.658 221.456,172.951 256,172.72C290.544,172.951 324.97,168.658 358.4,159.952C360.874,159.277 362.787,157.296 363.376,154.8C365.335,146.447 366.322,137.896 366.32,129.316C366.32,125.908 366.144,122.54 365.84,119.208C443.492,131.656 479,154.408 479,170.876C479,187.252 445.004,209.412 369.04,222Z" style="fill:rgb(102,102,102);fill-rule:nonzero;"/>
    <path d="M418.772,185.564C389.266,194.721 358.86,200.678 328.08,203.332C324.521,203.69 321.779,206.721 321.779,210.298C321.779,214.139 324.939,217.299 328.78,217.299C329.014,217.299 329.247,217.287 329.48,217.264C361.272,214.505 392.675,208.336 423.148,198.864C425.947,197.881 427.831,195.222 427.831,192.256C427.831,188.413 424.669,185.252 420.827,185.252C420.131,185.252 419.438,185.356 418.772,185.56L418.772,185.564Z" style="fill:rgb(102,102,102);fill-rule:nonzero;"/>
    <path d="M141.428,271.868C137.671,271.097 133.942,273.54 133.148,277.292L89.916,484.568C89.133,488.328 91.581,492.066 95.34,492.852C95.812,492.95 96.294,493 96.776,493C100.076,492.995 102.948,490.658 103.624,487.428L146.852,280.148C146.95,279.678 147,279.198 147,278.718C147,275.415 144.661,272.54 141.428,271.868Z" style="fill:rgb(102,102,102);fill-rule:nonzero;"/>
    <path d="M378.852,277.292C378.219,274.011 375.32,271.618 371.979,271.618C368.139,271.618 364.979,274.778 364.979,278.618C364.979,279.132 365.035,279.646 365.148,280.148L408.376,487.428C409.052,490.658 411.924,492.995 415.224,493C415.706,493 416.188,492.95 416.66,492.852C420.419,492.066 422.867,488.328 422.084,484.568L378.852,277.292Z" style="fill:rgb(102,102,102);fill-rule:nonzero;"/>
    <path d="M306.212,283.68C302.55,283.918 299.665,286.996 299.665,290.665C299.665,290.817 299.67,290.969 299.68,291.12L312.348,486.452C312.585,490.112 315.66,492.997 319.328,493L319.788,493C323.45,492.762 326.335,489.684 326.335,486.015C326.335,485.863 326.33,485.711 326.32,485.56L313.652,290.212C313.429,286.554 310.358,283.663 306.693,283.663C306.532,283.663 306.372,283.669 306.212,283.68Z" style="fill:rgb(102,102,102);fill-rule:nonzero;"/>
    <path d="M205.788,283.68C205.634,283.67 205.48,283.665 205.326,283.665C201.658,283.665 198.581,286.551 198.348,290.212L185.68,485.544C185.67,485.695 185.665,485.847 185.665,485.999C185.665,489.668 188.55,492.746 192.212,492.984L192.672,492.984C196.34,492.981 199.415,490.096 199.652,486.436L212.32,291.12C212.33,290.969 212.335,290.817 212.335,290.665C212.335,286.996 209.45,283.918 205.788,283.68Z" style="fill:rgb(102,102,102);fill-rule:nonzero;"/>
</svg>
