<?xml version="1.0" encoding="UTF-8" standalone="no"?>
<!DOCTYPE svg PUBLIC "-//W3C//DTD SVG 1.1//EN" "http://www.w3.org/Graphics/SVG/1.1/DTD/svg11.dtd">
<svg width="100%" height="100%" viewBox="0 0 373 373" version="1.1" xmlns="http://www.w3.org/2000/svg" xmlns:xlink="http://www.w3.org/1999/xlink" xml:space="preserve" xmlns:serif="http://www.serif.com/" style="fill-rule:evenodd;clip-rule:evenodd;stroke-linejoin:round;stroke-miterlimit:2;">
    <path id="Icons" d="M167.423,93.012L204.628,93.012L204.628,204.627L167.423,204.627L167.423,93.012ZM167.423,241.833L204.628,241.833L204.628,279.038L167.423,279.038L167.423,241.833ZM186.025,372.05C83.286,372.05 0,288.764 0,186.025C0,83.286 83.286,0 186.025,0C288.764,0 372.05,83.286 372.05,186.025C372.05,288.764 288.764,372.05 186.025,372.05ZM186.025,37.205C103.834,37.205 37.205,103.834 37.205,186.025C37.205,268.216 103.834,334.845 186.025,334.845C268.216,334.845 334.845,268.216 334.845,186.025C334.845,103.834 268.216,37.205 186.025,37.205Z" style="fill:white;fill-rule:nonzero;"/>
</svg>
