<?xml version="1.0" encoding="UTF-8" standalone="no"?>
<!DOCTYPE svg PUBLIC "-//W3C//DTD SVG 1.1//EN" "http://www.w3.org/Graphics/SVG/1.1/DTD/svg11.dtd">
<svg width="100%" height="100%" viewBox="0 0 512 512" version="1.1" xmlns="http://www.w3.org/2000/svg" xmlns:xlink="http://www.w3.org/1999/xlink" xml:space="preserve" xmlns:serif="http://www.serif.com/" style="fill-rule:evenodd;clip-rule:evenodd;stroke-linejoin:round;stroke-miterlimit:2;">
    <g>
        <path d="M74,401.996C79.523,401.996 84,397.52 84,391.996L84,20L428.445,20L428.445,40.004C428.445,45.523 432.922,50.004 438.445,50.004C443.969,50.004 448.445,45.523 448.445,40.004L448.445,10C448.445,4.477 443.969,0 438.445,0L74,0C68.477,0 64,4.477 64,10L64,391.996C64,397.52 68.477,401.996 74,401.996Z" style="fill:rgb(218,42,29);"/>
        <path d="M438.445,110.004C432.922,110.004 428.445,114.48 428.445,120.004L428.445,387.98L334.426,387.98C328.902,387.98 324.426,392.457 324.426,397.98L324.426,492L84,492L84,471.996C84,466.477 79.523,461.996 74,461.996C68.477,461.996 64,466.477 64,471.996L64,502C64,507.523 68.477,512 74,512L334.426,512C334.477,512 334.527,511.992 334.582,511.992C334.855,511.988 335.129,511.977 335.402,511.953C335.57,511.938 335.734,511.902 335.898,511.879C336.055,511.855 336.215,511.84 336.367,511.809C336.535,511.777 336.699,511.727 336.867,511.687C337.016,511.648 337.168,511.617 337.316,511.574C337.473,511.527 337.621,511.465 337.773,511.41C337.93,511.355 338.086,511.309 338.238,511.246C338.375,511.187 338.508,511.117 338.641,511.055C338.805,510.98 338.969,510.91 339.125,510.828C339.25,510.762 339.371,510.684 339.492,510.609C339.652,510.516 339.813,510.43 339.965,510.324C340.109,510.23 340.242,510.121 340.379,510.02C340.508,509.926 340.637,509.84 340.758,509.738C341.016,509.531 341.262,509.309 341.496,509.07L445.516,405.051C445.832,404.734 446.117,404.395 446.383,404.043C446.453,403.957 446.52,403.867 446.582,403.777C446.832,403.422 447.07,403.063 447.273,402.68C447.285,402.656 447.293,402.633 447.305,402.609C447.492,402.246 447.656,401.871 447.797,401.488C447.836,401.387 447.875,401.281 447.91,401.176C448.047,400.77 448.168,400.359 448.254,399.938C448.254,399.93 448.254,399.922 448.258,399.91C448.336,399.5 448.383,399.078 448.41,398.656C448.422,398.543 448.426,398.43 448.43,398.316C448.434,398.203 448.445,398.094 448.445,397.98L448.445,120.004C448.445,114.48 443.969,110.004 438.445,110.004ZM344.426,477.859L344.426,407.98L414.301,407.98L344.426,477.859Z" style="fill:rgb(218,42,29);"/>
        <path d="M158.223,308.785C183.23,288.637 218.949,277.078 256.223,277.078C293.496,277.078 329.215,288.637 354.223,308.785C356.07,310.277 358.289,311 360.492,311C363.41,311 366.309,309.727 368.285,307.273C371.75,302.973 371.07,296.676 366.77,293.211C338.273,270.25 297.977,257.078 256.223,257.078C214.469,257.078 174.172,270.25 145.676,293.211C141.371,296.676 140.695,302.973 144.16,307.273C147.625,311.57 153.922,312.254 158.223,308.785Z" style="fill:rgb(218,42,29);"/>
        <path d="M367.566,107.926C363.664,104.02 357.332,104.02 353.426,107.926L330.828,130.523L308.227,107.926C304.324,104.02 297.992,104.02 294.086,107.926C290.18,111.828 290.18,118.16 294.086,122.066L316.684,144.664L294.086,167.266C290.18,171.168 290.18,177.5 294.086,181.406C297.988,185.313 304.32,185.313 308.227,181.406L330.828,158.809L353.426,181.406C355.379,183.359 357.938,184.336 360.496,184.336C363.055,184.336 365.613,183.359 367.566,181.406C371.473,177.5 371.473,171.168 367.566,167.266L344.969,144.664L367.566,122.066C371.473,118.16 371.473,111.828 367.566,107.926Z" style="fill:rgb(218,42,29);"/>
        <path d="M144.879,181.406C148.781,185.309 155.113,185.309 159.02,181.402L181.617,158.805L204.215,181.402C206.168,183.355 208.727,184.332 211.285,184.332C213.844,184.332 216.406,183.355 218.355,181.402C222.262,177.5 222.262,171.168 218.359,167.262L195.762,144.664L218.359,122.063C222.262,118.16 222.262,111.828 218.355,107.922C214.453,104.02 208.121,104.016 204.215,107.922L181.617,130.52L159.02,107.922C155.113,104.016 148.781,104.016 144.879,107.922C140.973,111.828 140.973,118.16 144.879,122.063L167.477,144.664L144.879,167.262C140.973,171.168 140.973,177.5 144.879,181.406Z" style="fill:rgb(218,42,29);"/>
        <path d="M74,441.996C79.508,441.996 84,437.508 84,431.996C84,426.488 79.508,421.996 74,421.996C68.492,421.996 64,426.488 64,431.996C64,437.508 68.492,441.996 74,441.996Z" style="fill:rgb(218,42,29);"/>
        <path d="M438.445,70.004C432.938,70.004 428.445,74.492 428.445,80.004C428.445,85.512 432.938,90.004 438.445,90.004C443.953,90.004 448.445,85.512 448.445,80.004C448.445,74.492 443.953,70.004 438.445,70.004Z" style="fill:rgb(218,42,29);"/>
    </g>
</svg>
