<?xml version="1.0" encoding="utf-8"?>
<svg width="56px" height="60px" viewBox="0 0 56 60" version="1.1" xmlns:xlink="http://www.w3.org/1999/xlink" xmlns="http://www.w3.org/2000/svg">
  <desc>Created with Lunacy</desc>
  <defs>
    <linearGradient x1="0.206439987" y1="0.743338943" x2="0.863885" y2="0.2509475" id="gradient_1">
      <stop offset="0" stop-color="#FF5B5B" />
      <stop offset="0.350366324" stop-color="#FBE95B" />
      <stop offset="0.5983068" stop-color="#5AD84A" />
      <stop offset="1" stop-color="#2165D5" />
    </linearGradient>
  </defs>
  <g id="A1_Guru_icon">
    <path d="M25.957 0L29.9504 0L29.9504 9.98351L25.957 9.98351L25.957 0ZM16.6524 13.837L9.60408 6.76873L6.76873 9.60408L13.837 16.6524L16.6524 13.837ZM49.1386 9.60408L46.3033 6.76873L39.2549 13.837L42.0703 16.6524L49.1386 9.60408ZM11.9801 27.9537C11.9801 19.1317 19.1317 11.9801 27.9537 11.9801C36.7756 11.9801 43.9272 19.1316 43.9272 27.9537L43.9272 29.9503L35.9404 47.9206L19.9669 47.9206L11.9801 29.9503L11.9801 27.9537ZM39.9338 29.1117L33.3448 43.9272L22.5626 43.9272L15.9735 29.1117L15.9735 27.9537C15.9735 21.3372 21.3372 15.9735 27.9537 15.9735C34.5701 15.9735 39.9338 21.3372 39.9338 27.9537L39.9338 29.1117ZM9.9834 29.9503L0 29.9503L0 25.9569L9.9834 25.9569L9.9834 29.9503ZM45.9239 25.9569L45.9239 29.9503L55.9073 29.9503L55.9073 25.9569L45.9239 25.9569ZM21.9636 53.9107L19.9669 51.914L19.9669 49.9172L35.9405 49.9172L35.9405 51.914L33.9438 53.9107L21.9636 53.9107ZM23.9603 59.9007L21.9636 57.904L21.9636 55.9073L33.9437 55.9073L33.9437 57.904L31.9471 59.9007L23.9603 59.9007Z" id="Icons_1_" fill="url(#gradient_1)" fill-rule="evenodd" stroke="none" />
  </g>
</svg>