<?xml version="1.0" encoding="UTF-8" standalone="no"?>
<!DOCTYPE svg PUBLIC "-//W3C//DTD SVG 1.1//EN" "http://www.w3.org/Graphics/SVG/1.1/DTD/svg11.dtd">
<svg width="100%" height="100%" viewBox="0 0 19 11" version="1.1" xmlns="http://www.w3.org/2000/svg" xmlns:xlink="http://www.w3.org/1999/xlink" xml:space="preserve" xmlns:serif="http://www.serif.com/" style="fill-rule:evenodd;clip-rule:evenodd;">
    <g id="Group-2" transform="matrix(1,0,0,1,0.5,0.5)">
        <g id="Oval" transform="matrix(1,0,0,1,8,0)">
            <path d="M5,10C7.761,10 10,7.761 10,5C10,2.239 7.761,0 5,0C2.239,0 0,2.239 0,5C0,7.761 2.239,10 5,10Z" style="fill:rgb(59,59,59);fill-rule:nonzero;"/>
        </g>
        <g id="Oval1" serif:id="Oval">
            <path id="path_1" d="M5,10C7.761,10 10,7.761 10,5C10,2.239 7.761,0 5,0C2.239,0 0,2.239 0,5C0,7.761 2.239,10 5,10Z" style="fill:none;fill-rule:nonzero;stroke:rgb(216,216,216);stroke-width:4px;"/>
            <path id="path_11" serif:id="path_1" d="M5,10C7.761,10 10,7.761 10,5C10,2.239 7.761,0 5,0C2.239,0 0,2.239 0,5C0,7.761 2.239,10 5,10Z" style="fill:rgb(59,59,59);fill-rule:nonzero;"/>
        </g>
    </g>
</svg>
