<?xml version="1.0" encoding="utf-8"?>
<svg width="53px" height="50px" viewBox="0 0 53 50" version="1.1" xmlns:xlink="http://www.w3.org/1999/xlink" xmlns="http://www.w3.org/2000/svg">
  <desc>Created with Lunacy</desc>
  <g id="A1_on_demand_icon">
    <path d="M50.5764 24.0878L45.5212 14.7333L52.5424 14.7333L52.5424 49.8129L1.05317 49.8129L1.05317 14.7333L1.54472 14.7333L0 7.36659L50.4362 0L51.4893 8.536L44.1404 9.58837L46.2467 3.27403L39.9276 4.3264L36.7681 10.6407L28.366 11.6697L30.4723 5.37877L23.1234 6.31422L19.9639 12.6052L12.6149 13.6576L14.6979 7.36659L6.29576 8.41896L3.58086 15.8792L3.11284 15.8792L8.07449 24.0878L16.5936 24.0878L11.5149 14.7333L20.0107 14.7333L25.0659 24.0878L33.5616 24.0878L28.5064 14.7333L37.0021 14.7333L42.0573 24.0878L50.5764 24.0878ZM5.73401 45.1355L47.8617 45.1355L47.8615 28.7651L5.73401 28.7651L5.73401 45.1355Z" id="Icons_1_" fill="#1A1A1A" fill-rule="evenodd" stroke="none" />
  </g>
</svg>