<?xml version="1.0" encoding="utf-8"?>
<svg width="51px" height="51px" viewBox="0 0 51 51" version="1.1" xmlns:xlink="http://www.w3.org/1999/xlink" xmlns="http://www.w3.org/2000/svg">
  <desc>Created with Lunacy</desc>
  <defs>
    <linearGradient x1="1.045316" y1="0.111814924" x2="0.156547621" y2="0.7768296" id="gradient_1">
      <stop offset="0" stop-color="#F9E881" />
      <stop offset="0.09467286" stop-color="#F9E881" />
      <stop offset="1" stop-color="#F0CD4A" />
    </linearGradient>
  </defs>
  <g id="sun_icon" transform="translate(0.5 0.5)">
    <g id="A1_Sun_icon">
      <path d="M26.7858 7.14286L23.2143 7.14286L23.2143 0L26.7858 0L26.7858 7.14286ZM6.05353 8.58928L11.1785 13.7143L13.6964 11.1785L8.58928 6.05353L6.05353 8.58928ZM41.4107 6.05353L36.2857 11.1785L38.8215 13.7143L43.9465 8.58928L41.4107 6.05353ZM10.7143 25C10.7143 17.1102 17.1102 10.7143 25 10.7143C32.8898 10.7143 39.2857 17.1102 39.2857 25C39.2857 32.8898 32.8898 39.2857 25 39.2857C17.1102 39.2857 10.7143 32.8898 10.7143 25ZM25 14.2857C30.9173 14.2857 35.7143 19.0827 35.7143 25C35.7143 30.9173 30.9173 35.7143 25 35.7143C19.0827 35.7143 14.2857 30.9173 14.2857 25C14.2857 19.0827 19.0827 14.2857 25 14.2857ZM42.8571 23.2142L42.8571 26.7857L50 26.7857L50 23.2142L42.8571 23.2142ZM7.14286 26.7858L0 26.7858L0 23.2143L7.14286 23.2143L7.14286 26.7858ZM8.58928 43.9465L6.05353 41.4107L11.1785 36.2857L13.7143 38.8215L8.58928 43.9465ZM38.8214 36.2857L36.2856 38.8215L41.4106 43.9465L43.9464 41.4107L38.8214 36.2857ZM26.7858 50L23.2143 50L23.2143 42.8571L26.7858 42.8571L26.7858 50Z" id="Icons" fill="#F0CD4A" fill-rule="evenodd" stroke="none" />
    </g>
    <path d="M14 28C21.732 28 28 21.732 28 14C28 6.26801 21.732 0 14 0C6.26801 0 0 6.26801 0 14C0 21.732 6.26801 28 14 28Z" transform="translate(11 11)" id="Oval_fill" fill="url(#gradient_1)" stroke="none" />
  </g>
</svg>