<?xml version="1.0" encoding="UTF-8" standalone="no"?>
<!DOCTYPE svg PUBLIC "-//W3C//DTD SVG 1.1//EN" "http://www.w3.org/Graphics/SVG/1.1/DTD/svg11.dtd">
<svg width="100%" height="100%" viewBox="0 0 270 512" version="1.1" xmlns="http://www.w3.org/2000/svg" xmlns:xlink="http://www.w3.org/1999/xlink" xml:space="preserve" xmlns:serif="http://www.serif.com/" style="fill-rule:evenodd;clip-rule:evenodd;stroke-linejoin:round;stroke-miterlimit:2;">
    <g transform="matrix(1,0,0,1,-242,0)">
        <path d="M482.117,57.806L418.674,57.806C413.188,24.715 384.122,-0.515 349.391,0.008C311.449,0.579 281.29,32.197 281.29,70.145L281.29,327.625C281.29,331.863 279.678,335.955 276.736,339.004C258.155,358.263 247.885,383.949 248.268,411.284C249.056,467.437 295.742,512.772 351.896,511.991C441.407,510.745 485.567,402.73 424.215,339.052C421.258,335.985 419.613,331.886 419.613,327.626L419.613,297.29L440.827,297.29C449.723,297.29 457.374,290.451 457.788,281.565C458.23,272.079 450.678,264.258 441.29,264.258L419.613,264.258L419.613,194.065L461.472,194.065C470.368,194.065 478.019,187.225 478.433,178.339C478.875,168.854 471.323,161.032 461.935,161.032L419.613,161.032L419.613,90.839L482.581,90.839C491.968,90.839 499.52,83.017 499.078,73.532C498.664,64.646 491.013,57.806 482.117,57.806ZM347.695,447.903C312.997,445.454 299.211,400.82 327.377,379.391C331.495,376.257 333.935,371.4 333.935,366.226L333.935,168.722C333.935,159.826 340.775,152.173 349.662,151.761C359.146,151.319 366.968,158.872 366.968,168.258L366.968,366.016C366.968,371.204 369.286,376.187 373.426,379.315C403.725,402.209 385.501,450.57 347.695,447.903Z" style="fill:rgb(235,235,235);fill-rule:nonzero;"/>
    </g>
</svg>
